<?xml version="1.0" standalone="no"?>
<!DOCTYPE svg PUBLIC "-//W3C//DTD SVG 20010904//EN"
 "http://www.w3.org/TR/2001/REC-SVG-20010904/DTD/svg10.dtd">
<svg version="1.0" xmlns="http://www.w3.org/2000/svg"
 width="700.000000pt" height="452.000000pt" viewBox="0 0 700.000000 452.000000"
 preserveAspectRatio="xMidYMid meet">

<g transform="translate(0.000000,452.000000) scale(0.100000,-0.100000)"
fill="#000000" stroke="none">
<path d="M6355 4298 c-489 -75 -949 -185 -1397 -335 l-257 -86 -68 62 c-234
215 -539 327 -919 338 -552 17 -1127 -194 -1624 -594 -777 -626 -1290 -1433
-1564 -2462 l-34 -131 232 0 232 0 18 78 c70 299 265 774 451 1103 83 145 270
421 376 555 134 169 422 456 569 566 296 223 582 358 895 424 163 35 426 44
565 20 127 -22 237 -59 307 -105 101 -65 106 -57 -89 -154 -654 -323 -1112
-736 -1333 -1200 -106 -223 -141 -376 -132 -577 7 -151 32 -254 90 -365 81
-156 242 -282 422 -331 92 -25 310 -30 419 -10 180 34 350 102 521 209 550
342 954 1073 955 1729 0 125 -22 304 -49 401 l-19 69 43 18 c81 35 410 138
570 179 274 69 417 97 913 177 l32 5 0 214 0 215 -32 -1 c-18 -1 -60 -6 -93
-11z m-1871 -1084 c16 -57 19 -103 20 -264 0 -213 -11 -284 -76 -470 -150
-424 -499 -785 -876 -904 -218 -68 -379 -32 -455 104 -85 149 -20 422 162 688
177 257 448 494 825 720 180 108 357 203 371 199 5 -2 18 -35 29 -73z"/>
<path d="M421 778 c-5 -13 -54 -138 -110 -279 -56 -140 -101 -261 -101 -267 0
-7 16 -12 38 -12 36 0 39 3 63 53 l24 52 144 3 c92 2 148 -1 155 -8 6 -6 18
-30 27 -53 15 -39 19 -42 58 -45 24 -2 41 1 41 7 0 15 -211 543 -223 559 -5 6
-31 12 -58 12 -42 0 -51 -3 -58 -22z m124 -226 c32 -79 55 -145 53 -148 -3 -2
-57 -3 -121 -2 l-115 3 52 130 c29 72 55 139 59 149 4 10 9 17 11 15 2 -2 30
-68 61 -147z"/>
<path d="M3565 786 c-67 -21 -100 -43 -149 -97 -82 -91 -96 -202 -41 -315 67
-137 250 -206 398 -149 21 9 21 10 1 45 -17 27 -18 28 -98 23 -65 -5 -89 -2
-117 12 -185 93 -176 327 15 400 44 17 128 17 181 1 25 -8 61 46 42 62 -38 31
-162 40 -232 18z"/>
<path d="M5827 794 c-4 -4 -7 -25 -7 -46 l0 -39 43 3 c42 3 42 3 42 43 0 39
-1 40 -35 43 -20 2 -39 0 -43 -4z"/>
<path d="M941 619 c-55 -11 -89 -33 -101 -65 -6 -14 -10 -95 -10 -180 l0 -154
40 0 40 0 0 149 c0 165 0 165 66 179 36 7 39 11 42 45 4 41 2 42 -77 26z"/>
<path d="M1870 615 c-77 -35 -123 -108 -123 -195 0 -155 150 -254 291 -190 34
16 42 16 42 5 0 -11 12 -15 40 -15 l40 0 0 200 0 200 -40 0 c-28 0 -40 -4 -40
-14 0 -12 -5 -12 -32 2 -46 23 -135 26 -178 7z m155 -79 c44 -19 55 -42 55
-119 0 -75 -20 -109 -76 -127 -128 -43 -236 109 -152 215 11 15 30 31 42 35
33 13 93 11 131 -4z"/>
<path d="M2354 605 c-83 -43 -89 -56 -92 -232 l-3 -153 40 0 41 0 0 136 0 136
29 29 c24 24 38 29 76 29 97 0 115 -32 115 -205 l0 -125 40 0 40 0 0 134 c0
74 -5 147 -11 163 -37 99 -169 142 -275 88z"/>
<path d="M2835 611 c-22 -10 -55 -34 -72 -54 -147 -167 42 -419 245 -327 36
16 42 17 42 4 0 -11 9 -14 38 -12 l37 3 0 195 0 195 -37 3 c-29 2 -38 -1 -38
-12 0 -13 -6 -12 -42 4 -54 25 -121 25 -173 1z m186 -99 c26 -29 29 -40 29
-98 0 -61 -2 -68 -31 -95 -69 -64 -172 -42 -218 48 -26 50 -6 122 46 163 24
18 38 21 87 18 51 -4 63 -9 87 -36z"/>
<path d="M3941 619 c-44 -17 -81 -51 -101 -90 -45 -86 -34 -182 26 -249 49
-54 107 -74 190 -67 78 6 92 16 78 54 -9 27 -11 28 -81 25 -76 -4 -124 12
-143 47 -20 38 -14 40 143 43 l152 3 3 35 c8 76 -46 168 -115 196 -37 16 -117
17 -152 3z m130 -76 c24 -14 59 -66 59 -87 0 -3 -52 -6 -115 -6 -98 0 -115 2
-115 16 0 26 20 54 53 74 39 24 80 25 118 3z"/>
<path d="M4391 619 c-99 -19 -113 -52 -109 -254 l3 -140 38 -3 37 -3 0 150 c0
164 -2 159 65 176 37 10 40 14 43 48 4 41 2 42 -77 26z"/>
<path d="M4642 619 c-81 -24 -140 -127 -130 -230 13 -136 170 -222 293 -159
47 24 45 24 45 5 0 -10 11 -15 35 -15 l35 0 0 200 0 200 -34 0 c-19 0 -36 -5
-38 -12 -3 -8 -16 -7 -46 5 -46 18 -108 21 -160 6z m148 -84 c45 -23 60 -53
60 -118 0 -53 -3 -62 -33 -92 -45 -45 -93 -54 -149 -26 -52 25 -78 65 -78 121
0 78 51 129 128 130 24 0 56 -7 72 -15z"/>
<path d="M5125 616 c-17 -7 -45 -30 -63 -50 l-32 -37 0 -154 0 -155 35 0 35 0
0 119 c0 130 10 172 45 195 32 21 114 21 144 0 39 -28 51 -73 51 -199 l0 -115
35 0 35 0 0 115 c0 170 26 215 123 215 99 0 117 -31 117 -205 l0 -126 38 3 37
3 0 145 c0 163 -7 185 -72 230 -27 18 -52 25 -102 28 -57 3 -74 0 -121 -25
l-55 -28 -54 28 c-61 30 -143 36 -196 13z"/>
<path d="M6099 602 c-188 -98 -130 -369 82 -390 46 -4 139 20 139 36 0 3 -9
16 -21 28 -18 19 -28 21 -79 17 -48 -5 -64 -2 -93 16 -36 22 -67 73 -67 111 0
38 31 89 67 111 29 18 45 21 93 16 51 -4 61 -2 79 17 12 12 21 25 21 28 0 3
-18 13 -40 22 -61 24 -119 20 -181 -12z"/>
<path d="M6464 616 c-44 -20 -74 -62 -74 -106 0 -58 28 -84 123 -116 93 -30
107 -39 107 -65 0 -41 -97 -57 -161 -25 -33 17 -34 16 -52 -5 -10 -12 -16 -27
-14 -33 13 -39 152 -69 219 -47 71 23 107 91 81 152 -17 41 -25 46 -133 84
-68 24 -86 34 -88 52 -5 36 36 56 90 44 25 -6 52 -13 60 -16 10 -4 23 4 38 25
l22 30 -44 20 c-50 23 -129 25 -174 6z"/>
<path d="M1080 608 c0 -7 26 -97 58 -200 l57 -188 56 0 55 0 39 128 c21 70 41
130 44 134 4 4 25 -52 47 -125 l40 -132 56 -3 c56 -3 56 -3 67 30 39 124 111
360 111 363 0 3 -18 5 -39 5 l-39 0 -37 -117 c-20 -65 -42 -136 -49 -158 l-13
-40 -35 115 c-20 63 -42 134 -49 158 l-12 43 -45 -3 -45 -3 -45 -147 c-25 -82
-48 -148 -51 -148 -4 0 -26 66 -51 148 l-45 147 -38 3 c-25 2 -37 -1 -37 -10z"/>
<path d="M5830 420 l0 -200 35 0 35 0 0 200 0 200 -35 0 -35 0 0 -200z"/>
</g>
</svg>
