<?xml version="1.0" standalone="no"?>
<!DOCTYPE svg PUBLIC "-//W3C//DTD SVG 20010904//EN"
 "http://www.w3.org/TR/2001/REC-SVG-20010904/DTD/svg10.dtd">
<svg version="1.0" xmlns="http://www.w3.org/2000/svg"
 width="700.000000pt" height="520.000000pt" viewBox="0 0 700.000000 520.000000"
 preserveAspectRatio="xMidYMid meet">

<g transform="translate(0.000000,520.000000) scale(0.100000,-0.100000)"
fill="#000000" stroke="none">
<path d="M4800 4554 c-91 -53 -210 -122 -265 -154 -105 -61 -840 -486 -1032
-597 l-113 -65 0 -958 0 -957 138 -80 c190 -110 489 -284 597 -348 50 -29 144
-84 210 -122 66 -39 185 -109 265 -155 159 -94 531 -310 677 -394 l92 -53 144
83 c80 46 201 116 269 156 249 147 406 238 513 300 61 35 130 75 155 90 25 15
77 45 115 67 39 23 141 83 228 133 l157 93 0 952 0 952 -82 48 c-46 27 -159
93 -253 148 -93 55 -201 118 -240 140 -38 22 -95 55 -125 73 -30 17 -98 56
-150 87 -52 30 -203 118 -335 194 -132 77 -284 165 -338 196 -53 31 -139 81
-190 111 -235 137 -269 156 -270 156 -1 0 -76 -44 -167 -96z m196 -263 c5 -5
63 -40 129 -78 66 -38 164 -95 218 -126 53 -31 141 -82 195 -113 197 -115 401
-234 557 -324 88 -51 214 -124 280 -162 66 -38 124 -73 128 -78 8 -7 -103 -76
-229 -142 l-61 -32 -109 64 c-60 35 -165 97 -234 138 -69 40 -150 89 -180 106
-142 85 -469 279 -600 356 -80 47 -202 120 -272 161 -71 40 -128 77 -128 80 0
3 21 17 48 32 26 14 85 48 132 76 85 51 108 59 126 42z m-528 -649 c163 -98
496 -297 739 -443 244 -145 442 -268 440 -273 -2 -5 -66 -43 -142 -85 l-140
-77 -115 67 c-133 76 -397 230 -520 302 -47 27 -101 59 -120 70 -19 10 -109
62 -200 115 -91 53 -190 110 -220 127 -30 18 -86 51 -125 73 -38 23 -105 61
-147 84 -43 24 -78 45 -78 48 0 11 306 179 318 175 7 -3 146 -85 310 -183z
m-526 -399 c407 -236 945 -547 1133 -655 66 -38 123 -73 128 -77 4 -4 6 -321
5 -704 l-3 -697 -65 39 c-36 21 -207 120 -380 221 -173 100 -405 235 -515 300
-110 65 -231 135 -270 157 -143 81 -270 156 -282 165 -10 8 -13 161 -13 704 0
382 2 694 4 694 3 0 119 -66 258 -147z m2708 -797 l0 -684 -117 -68 c-65 -37
-149 -86 -188 -109 -76 -45 -176 -104 -410 -240 -82 -48 -190 -111 -240 -140
-49 -29 -111 -65 -137 -80 l-48 -27 0 704 0 703 146 80 c81 44 153 81 160 83
12 3 14 -39 14 -247 0 -138 3 -251 6 -251 3 0 94 49 202 109 108 60 230 126
269 147 l73 39 0 260 0 261 128 72 c70 39 130 72 135 72 4 0 7 -308 7 -684z"/>
<path d="M6363 2173 c-22 -15 -23 -22 -23 -154 0 -143 2 -149 41 -129 17 10
19 23 19 155 0 80 -3 145 -7 144 -5 0 -18 -7 -30 -16z"/>
<path d="M6228 2094 l-28 -15 0 -138 c0 -76 3 -141 6 -144 4 -4 20 1 35 10
l29 17 0 143 c0 79 -3 143 -7 143 -5 -1 -20 -8 -35 -16z"/>
<path d="M6138 2044 l-28 -15 0 -144 c0 -80 2 -145 5 -145 17 0 54 25 57 39 1
9 1 75 -2 148 l-5 131 -27 -14z"/>
<path d="M6042 1984 c-21 -14 -22 -22 -22 -155 0 -76 3 -139 8 -139 4 0 18 7
30 16 21 14 22 22 22 155 0 76 -3 139 -8 139 -4 0 -18 -7 -30 -16z"/>
<path d="M5913 1911 c-22 -18 -23 -26 -23 -160 l0 -142 30 16 c30 15 30 17 32
103 4 219 4 219 -39 183z"/>
<path d="M5817 1853 l-28 -14 3 -136 c3 -139 8 -155 41 -131 16 12 17 30 15
155 l-3 141 -28 -15z"/>
<path d="M2195 3399 c-3 -4 16 -71 41 -148 l46 -141 410 0 409 0 -3 148 -3
147 -448 1 c-246 1 -450 -2 -452 -7z"/>
<path d="M2001 2898 c5 -18 26 -82 48 -143 l39 -110 506 -3 506 -2 0 145 0
145 -554 0 -554 0 9 -32z"/>
<path d="M2480 2453 c0 -5 21 -72 47 -151 l48 -142 260 2 260 3 0 145 0 145
-307 3 c-170 1 -308 -1 -308 -5z"/>
</g>
</svg>
